<svg xmlns="http://www.w3.org/2000/svg" viewBox="0 0 92 100">
<path d="M74 0H5C2.2 0 0 2.2 0 5v90c0 2.8 2.2 5 5 5h69c2.8 0 5-2.2 5-5V5c0-2.8-2.2-5-5-5zm-5.8 51.9c-2.7 2.9-8.7 4.5-13.7 5.3.3 1.2.6 2.3 1 3.3.2.4-.1.8-.5 1-.2.1-.2.1-.3.1-.3 0-.6-.2-.8-.5-.4-1-.8-2.3-1.1-3.6-.3 0-.6.1-.9.1-.1.1-.1.2-.2.3-.3.5-.5 1.1-.8 1.6.3 1.5.6 2.8.8 4 .1.5-.2.8-.6 1 0-.2-.1-.2-.1-.2-.4 0-.7-.2-.8-.6-.2-.7-.4-1.5-.6-2.4-.5.7-1.1 1.3-1.6 1.8.2.8.3 1.4.4 1.9.1.5-.2.8-.6 1h-.2c-.4 0-.7-.2-.8-.6-.1-.3-.1-.7-.2-1.1-12.8 10.1-34.4-4.8-31-20 1.8-8.2 9.2-13.4 17.5-14.7 12.9-2.1 21 5.6 21.5 15.8 1-.4 1.9-.8 2.8-1.1 2.7-1.1 4.8-2 5.9-2.3.5-.1.8.2 1 .6.1.5-.2.8-.6 1-1 .2-3.2 1.1-5.7 2.2-1.1.5-2.3.9-3.4 1.4 0 1.1-.2 2.3-.4 3.5 3.8-.9 7.5-2 10-3.7.4-.2.8-.2 1.1.2.2.4.2.8-.2 1.1-2.9 1.9-7.1 3.1-11.3 4.1-.1.4-.2.9-.4 1.3.1.2.1.5.2.7l.3 1.2c4.7-.8 10.5-2.2 12.9-4.8.3-.3.8-.3 1.1 0 .6.3.6.8.3 1.1zM87 33h-5V5h5c2.8 0 5 2.2 5 5v18c0 2.8-2.2 5-5 5zm0 31h-5V36h5c2.8 0 5 2.2 5 5v18c0 2.8-2.2 5-5 5zm0 31h-5V67h5c2.8 0 5 2.2 5 5v18c0 2.8-2.2 5-5 5zM53.4 52.5c.2-.1.4-.1.7-.2.2-.6.3-1.2.4-1.8l-1.5.3c-.2-.9-.5-1.9-.8-2.8.9-.3 1.8-.7 2.7-1.1v-1.8c-1 .4-2.1.8-3.2 1.2-1.4-4.3-3.5-8.1-6.8-9.4-2.8-1.1-7.2-1.3-11.6-.5-4.8.9-8.5 2.7-10 5.1-1.6 2.5-1.9 6.3-.8 10 1.1 3.6 3.5 6.4 6.2 7.5 3.5 1.4 9.3.5 14.4-.5.8-.1 1.6-.3 2.4-.4.2.9.4 1.8.5 2.6.2 1.3.5 2.4.7 3.3.3-.2.6-.5.9-.8l.5-.5c-.1-.7-.3-1.5-.5-2.4-.2-.8-.3-1.7-.5-2.6.4-.1.8-.1 1.2-.1.2 0 .5 0 .8-.1.1.5.2 1 .3 1.4.1.7.3 1.3.4 1.9.4-.6.8-1.1 1.2-1.8 0-.1 0-.2-.1-.3-.1-.4-.2-.9-.3-1.4.4-.1.9-.1 1.4-.2.7-1.3 1.2-2.6 1.6-3.9 0 .1-.1-.3-.2-.7zm-10.5 4.6c-4.7.8-10.5 1.8-13.6.6-2.3-.9-4.3-3.3-5.3-6.5s-.8-6.5.6-8.6c1.3-1.9 4.7-3.6 9-4.3 1.7-.3 3.5-.5 5.1-.5 2.3 0 4.2.3 5.7.8 2.7 1.1 4.5 4.5 5.9 8.5-.7.3-1.4.5-2.2.8-1.4-3.8-3.5-6.8-6.6-7.7-3.5-.9-10.2-.4-13.3 3-1.1 1.2-2.2 3.5-.9 6.8 3.2 7.9 11 6 17.4 4.3.2.8.4 1.5.5 2.3-.7.2-1.5.3-2.3.5zm-.1-12.4c-2.3-2.3-7.2-1.9-9.6.2-1.9 1.6-2 3.7-.5 5.7 1.7 2.3 5.8 2 11.2.5.2.6.3 1.2.5 1.8-6.3 1.6-12.8 3.2-15.5-3.4-.8-2.1-.6-3.9.6-5.2 1.3-1.4 4.8-2.9 8.5-2.9 1.1 0 2.1.2 3.2.4 2.5.7 4.2 3.4 5.5 6.8-.6.2-1.2.4-1.7.6-.7-2.1-1.4-3.7-2.2-4.5zm.5 4.7c-4.4 1.2-8.2 1.7-9.4.2-1-1.4-.9-2.6.3-3.6 1.1-.8 2.7-1.4 4.2-1.4 1.3 0 2.4.4 3.1 1.1.7.8 1.3 2.1 1.8 3.7zm2.6 3.1c-.2-.6-.3-1.3-.5-1.9l1.8-.6c.2.7.4 1.3.6 2-.6.2-1.2.3-1.9.5zm2.3 3.8c-.4 0-.9.1-1.4.1-.2-.8-.4-1.7-.5-2.5.6-.1 1.2-.3 1.9-.4.2.9.4 1.9.6 2.8h-.6zm1.1-4.6c-.2-.7-.4-1.5-.7-2.2.7-.2 1.4-.5 2.1-.8.3.8.5 1.7.7 2.6-.5.1-1.1.2-1.6.4-.2-.1-.4 0-.5 0zm1 4.4c-.2-.9-.4-1.9-.7-2.8.2 0 .3-.1.5-.1.6-.1 1.1-.2 1.7-.4.2.7.3 1.3.5 2 .1.4.2.7.2 1.1-.8.1-1.5.2-2.2.2z" /></svg>