<svg width="30" height="27" viewBox="0 0 30 27" fill="none" xmlns="http://www.w3.org/2000/svg">
<path d="M24.2847 9.96132C24.5454 9.94841 24.7621 10.1579 24.7621 10.4189C24.7621 10.6781 24.5504 10.8881 24.2912 10.893C23.2492 10.9127 20.7125 11.0552 19.0936 11.9416C18.8205 12.0911 18.4379 11.9052 18.4379 11.5939C18.4379 11.5176 18.4621 11.4438 18.5177 11.3915C18.8248 11.1029 20.1291 10.1671 24.2847 9.96132Z" fill="#C64906"/>
<path d="M24.7621 5.14519C24.7621 4.88416 24.5454 4.67472 24.2847 4.68763C20.1291 4.89342 18.8248 5.82916 18.5177 6.11784C18.4621 6.17008 18.4379 6.24395 18.4379 6.32021C18.4379 6.63152 18.8205 6.81744 19.0936 6.66793C20.7125 5.7815 23.2492 5.63903 24.2912 5.61935C24.5504 5.61446 24.7621 5.40446 24.7621 5.14519Z" fill="#C64906"/>
<path d="M24.2847 15.235C24.5454 15.2221 24.7621 15.4315 24.7621 15.6926C24.7621 15.9518 24.5504 16.1618 24.2912 16.1667C23.2492 16.1864 20.7125 16.3289 19.0936 17.2153C18.8205 17.3648 18.4379 17.1789 18.4379 16.8676C18.4379 16.7913 18.4621 16.7175 18.5177 16.6652C18.8248 16.3765 20.1291 15.4408 24.2847 15.235Z" fill="#C64906"/>
<path fill-rule="evenodd" clip-rule="evenodd" d="M1.79014 0.456589V1.46356H0.458506C0.20528 1.46356 0 1.66884 0 1.92207V22.5963C0 22.8495 0.20528 23.0548 0.458506 23.0548H2.29741V23.0493C5.6141 23.0592 11.7745 23.6636 13.8595 26.0632C13.9536 26.1715 14.087 26.2393 14.2305 26.2393H15.804C15.962 26.2393 16.1066 26.1565 16.2079 26.0352C17.1383 24.9208 20.4564 23.0603 27.7025 23.0506V23.0548H29.5858C29.8145 23.0548 29.9999 22.8694 29.9999 22.6407V1.87771C29.9999 1.64898 29.8145 1.46356 29.5858 1.46356H28.1801V0.453158C28.1801 0.199932 27.968 -0.00210355 27.7148 1.65337e-05C19.6355 0.0676611 16.5569 1.89298 15.4978 2.84554C15.2414 3.07623 14.7307 3.09648 14.4644 2.87718C13.3202 1.9348 10.075 0.0714059 2.25478 0.000184349C2.00156 -0.00212176 1.79014 0.203363 1.79014 0.456589ZM2.93971 1.26824V19.3802C11.4021 19.3802 13.9574 21.8106 14.1962 22.0587V4.3628C13.8104 3.71282 11.7726 1.26823 2.93971 1.26824ZM14.2151 22.0791L14.2115 22.075H15.731L15.7266 22.0791H14.2151ZM27.0322 19.3477C19.0055 19.3477 16.0168 21.8217 15.747 22.0606V4.4358C16.0812 3.92868 18.2377 1.30076 27.0322 1.30076V19.3477Z" fill="#C64906"/>
</svg>
