<svg width="27" height="27" viewBox="0 0 27 27" fill="none" xmlns="http://www.w3.org/2000/svg">
<path d="M9.7409 16.9409C11.5414 16.9409 12.4417 16.136 12.4417 14.5261C12.4417 14.0177 12.304 13.5729 12.0286 13.1916C11.7744 12.7891 11.4461 12.5244 11.0436 12.3973C11.0224 12.249 11.0119 12.0901 11.0119 11.9206C11.0119 10.798 11.3614 9.65411 12.0604 8.48906L10.7259 7.66294C9.70912 8.38315 8.84064 9.35755 8.12043 10.5861C7.40022 11.7936 7.04011 13.1069 7.04011 14.5261C7.04011 16.136 7.94038 16.9409 9.7409 16.9409Z" fill="#C64906"/>
<path d="M16.6358 16.9409C18.4364 16.9409 19.3366 16.136 19.3366 14.5261C19.3366 14.0177 19.1989 13.5729 18.9236 13.1916C18.6694 12.7891 18.341 12.5244 17.9386 12.3973C17.9174 12.249 17.9068 12.0901 17.9068 11.9206C17.9068 10.798 18.2563 9.65411 18.9553 8.48906L17.6208 7.66294C16.6041 8.38315 15.7356 9.35755 15.0154 10.5861C14.2952 11.7936 13.9351 13.1069 13.9351 14.5261C13.9351 16.136 14.8353 16.9409 16.6358 16.9409Z" fill="#C64906"/>
<path fill-rule="evenodd" clip-rule="evenodd" d="M26.4783 13.2391C26.4783 20.5509 20.5509 26.4783 13.2391 26.4783C5.92736 26.4783 0 20.5509 0 13.2391C0 5.92736 5.92736 0 13.2391 0C20.5509 0 26.4783 5.92736 26.4783 13.2391ZM24.0711 13.2391C24.0711 19.2215 19.2215 24.0711 13.2391 24.0711C7.25677 24.0711 2.40711 19.2215 2.40711 13.2391C2.40711 7.25677 7.25677 2.40711 13.2391 2.40711C19.2215 2.40711 24.0711 7.25677 24.0711 13.2391Z" fill="#C64906"/>
</svg>
