<svg width="34" height="36" viewBox="0 0 34 36" fill="none" xmlns="http://www.w3.org/2000/svg">
<path fill-rule="evenodd" clip-rule="evenodd" d="M0.982437 4.74904C0.982437 2.66879 2.66881 0.982422 4.74905 0.982422H24.2509C26.3312 0.982422 28.0176 2.6688 28.0176 4.74904V5.2682H29.2509C31.3312 5.2682 33.0176 6.95457 33.0176 9.03481V31.8128C33.0176 33.893 31.3312 35.5794 29.2509 35.5794H9.74905C7.66881 35.5794 5.98244 33.893 5.98244 31.8128V31.2936H4.74905C2.66881 31.2936 0.982437 29.6072 0.982437 27.527V4.74904ZM5.98244 29.2585V9.03481C5.98244 6.95457 7.66881 5.2682 9.74906 5.2682H25.9824V4.74904C25.9824 3.79276 25.2072 3.01754 24.2509 3.01754H4.74905C3.79277 3.01754 3.01755 3.79276 3.01755 4.74904V27.527C3.01755 28.4833 3.79277 29.2585 4.74905 29.2585H5.98244ZM9.74906 7.30331C8.79277 7.30331 8.01755 8.07853 8.01755 9.03481V31.8128C8.01755 32.769 8.79277 33.5443 9.74905 33.5443H29.2509C30.2072 33.5443 30.9824 32.769 30.9824 31.8128V9.03481C30.9824 8.07853 30.2072 7.30331 29.2509 7.30331H9.74906ZM12.8539 14.3624H14.0664C14.6284 14.3624 15.084 13.9068 15.084 13.3448C15.084 12.7828 14.6284 12.3273 14.0664 12.3273H12.8544C12.8544 12.836 12.8539 13.0904 12.8539 13.3448C12.8539 13.4502 12.8539 13.7663 12.8539 13.7663V14.3624ZM17.4084 13.3448C17.4084 12.7828 17.864 12.3273 18.426 12.3273H26.3216C26.8836 12.3273 27.3392 12.7828 27.3392 13.3448C27.3392 13.9068 26.8836 14.3624 26.3216 14.3624H18.426C17.864 14.3624 17.4084 13.9068 17.4084 13.3448ZM11.8364 20.316C11.8364 19.754 12.292 19.2985 12.8539 19.2985H14.0664C14.6284 19.2985 15.084 19.754 15.084 20.316C15.084 20.878 14.6284 21.3336 14.0664 21.3336H12.8539C12.292 21.3336 11.8364 20.878 11.8364 20.316ZM17.5082 20.316C17.5082 19.754 17.9637 19.2985 18.5257 19.2985H26.4214C26.9834 19.2985 27.4389 19.754 27.4389 20.316C27.4389 20.878 26.9834 21.3336 26.4214 21.3336H18.5257C17.9637 21.3336 17.5082 20.878 17.5082 20.316ZM11.8364 27.7781C11.8364 27.2161 12.292 26.7605 12.8539 26.7605H14.0664C14.6284 26.7605 15.084 27.2161 15.084 27.7781C15.084 28.3401 14.6284 28.7957 14.0664 28.7957H12.8539C12.292 28.7957 11.8364 28.3401 11.8364 27.7781ZM17.4084 27.7781C17.4084 27.2161 17.864 26.7605 18.426 26.7605H26.3216C26.8836 26.7605 27.3392 27.2161 27.3392 27.7781C27.3392 28.3401 26.8836 28.7957 26.3216 28.7957H18.426C17.864 28.7957 17.4084 28.3401 17.4084 27.7781Z" fill="#C64906"/>
</svg>
