<svg width="27" height="27" viewBox="0 0 27 27" fill="none" xmlns="http://www.w3.org/2000/svg">
<path d="M14.9097 16.9728C14.4086 17.3791 13.8228 17.5823 13.1523 17.5823C12.1839 17.5823 11.4389 17.2403 10.9175 16.5563C10.396 15.8723 10.1353 14.8971 10.1353 13.6307V13.2751C10.1353 11.9749 10.396 10.9827 10.9175 10.2987C11.4457 9.60797 12.1873 9.26259 13.1422 9.26259C13.8532 9.26259 14.4492 9.49284 14.93 9.95336C15.4176 10.4071 15.6885 10.9895 15.7427 11.7006H17.5204C17.4662 10.5222 17.0294 9.56395 16.21 8.82578C15.3973 8.0876 14.3747 7.71852 13.1422 7.71852C12.1399 7.71852 11.2696 7.94877 10.5315 8.40929C9.80006 8.8698 9.23796 9.51655 8.84517 10.3495C8.45238 11.1825 8.25599 12.134 8.25599 13.204V13.5189C8.25599 15.2526 8.69618 16.6206 9.57657 17.6229C10.4637 18.6184 11.6557 19.1162 13.1523 19.1162C13.8973 19.1162 14.6016 18.9469 15.2653 18.6083C15.9357 18.2697 16.4707 17.8159 16.8703 17.2471C17.2698 16.6782 17.4866 16.0789 17.5204 15.449H15.7427C15.6885 16.0585 15.4109 16.5665 14.9097 16.9728Z" fill="#C64906"/>
<path fill-rule="evenodd" clip-rule="evenodd" d="M13.2391 26.4783C20.5509 26.4783 26.4783 20.5509 26.4783 13.2391C26.4783 5.92736 20.5509 0 13.2391 0C5.92736 0 0 5.92736 0 13.2391C0 20.5509 5.92736 26.4783 13.2391 26.4783ZM24.587 13.2391C24.587 19.5064 19.5064 24.587 13.2391 24.587C6.9719 24.587 1.8913 19.5064 1.8913 13.2391C1.8913 6.9719 6.9719 1.8913 13.2391 1.8913C19.5064 1.8913 24.587 6.9719 24.587 13.2391Z" fill="#C64906"/>
</svg>
