<?xml version="1.0" encoding="utf-8"?>
<!-- Generator: Adobe Illustrator 22.1.0, SVG Export Plug-In . SVG Version: 6.00 Build 0)  -->
<svg version="1.1" id="Layer_1" xmlns="http://www.w3.org/2000/svg" xmlns:xlink="http://www.w3.org/1999/xlink" x="0px" y="0px"
	 viewBox="0 0 1095 14" style="enable-background:new 0 0 1095 14;" xml:space="preserve">
<style type="text/css">
	.st0{fill:#666666;}
</style>
<path class="st0" d="M1094.5,6H619.6V4.3l-10.9,1.5l-34.3-3.8v1.6l-27-3.5l-26.9,3.5V1.9l-34.3,3.8l-10.9-1.5V6H0.5
	C0.2,6,0,6.2,0,6.5S0.2,7,0.5,7h474.7v1.6l10.9-1.5l34.3,3.8V9.4l26.9,3.6l27-3.5V11l34.3-3.8l10.9,1.5V7h474.9
	c0.3,0,0.5-0.2,0.5-0.5S1094.8,6,1094.5,6z"/>
</svg>
