<?xml version="1.0" encoding="utf-8"?>
<!-- Generator: Adobe Illustrator 22.1.0, SVG Export Plug-In . SVG Version: 6.00 Build 0)  -->
<svg version="1.1" id="Layer_1" xmlns="http://www.w3.org/2000/svg" xmlns:xlink="http://www.w3.org/1999/xlink" x="0px" y="0px"
	 viewBox="0 0 310 7" style="enable-background:new 0 0 310 7;" xml:space="preserve">
<style type="text/css">
	.st0{fill:#666666;}
</style>
<path class="st0" d="M309.5,3H193.2V2.3L187.7,3h-0.6l-17.8-2v0.9L155,0l-14.2,1.9V1l-17.8,2l-6.1-0.8V3H0.5C0.2,3,0,3.2,0,3.5
	S0.2,4,0.5,4h116.3v0.4l3.3-0.4h4.6l16,1.8V5L155,6.9L169.3,5v0.8l16-1.8h3.9l4,0.5V4h116.3c0.3,0,0.5-0.2,0.5-0.5S309.8,3,309.5,3z
	"/>
</svg>
