<svg width="19" height="24" viewBox="0 0 19 24" fill="none" xmlns="http://www.w3.org/2000/svg">
<path fill-rule="evenodd" clip-rule="evenodd" d="M13.1702 5.44468C13.1773 5.53372 13.1809 5.62363 13.1809 5.71429ZM13.1702 5.44468C13.0249 3.62564 11.4245 2.17177 9.5 2.17156C9.49986 2.17156 9.50014 2.17156 9.5 2.17156C7.57558 2.17156 5.97427 3.62551 5.82895 5.44468C5.82184 5.53372 5.81821 5.62363 5.81821 5.71429C5.81821 5.71437 5.81821 5.71421 5.81821 5.71429V8L13.1809 8.00024V5.71429M15.7365 10.5558H3.26265L2.55556 10.5556V21.4444H16.4444V10.5556L15.7365 10.5558ZM16.625 8H15.4375V5.71453C15.4375 2.57167 12.7656 0 9.5 0C9.50014 0 9.49986 0 9.5 0C6.23457 0.000222268 3.5625 2.57156 3.5625 5.71429V8H2.375C1.06863 8 0 9.02846 0 10.2857V21.7143C0 22.9715 1.06863 24 2.375 24H16.625C17.9314 24 19 22.9715 19 21.7143V10.2857C19 9.02846 17.9314 8 16.625 8Z" fill="#C64906"/>
</svg>
