<svg width="23" height="26" viewBox="0 0 23 26" fill="none" xmlns="http://www.w3.org/2000/svg">
<path fill-rule="evenodd" clip-rule="evenodd" d="M15.7913 18.7414C14.6167 19.444 13.2774 19.9143 11.8294 20.0818C6.36851 20.7134 1.42954 16.7986 0.797879 11.3377C0.166219 5.87687 4.08106 0.937901 9.54193 0.306241C15.0028 -0.325419 19.9418 3.58942 20.5734 9.05029C20.9189 12.0375 19.904 14.8685 18.0198 16.9238C18.0251 16.9308 18.0305 16.9378 18.0357 16.9449L22.523 22.9874C22.996 23.6243 22.8631 24.5241 22.2261 24.997C21.5892 25.47 20.6894 25.3371 20.2164 24.7002L15.7913 18.7414ZM17.2764 9.43292C17.6975 13.0735 15.0876 16.3661 11.447 16.7872C7.80642 17.2084 4.51378 14.5985 4.09267 10.9579C3.67156 7.31731 6.28146 4.02467 9.92203 3.60356C13.5626 3.18245 16.8553 5.79235 17.2764 9.43292Z" fill="#C64906"/>
</svg>
