<svg width="25" height="25" viewBox="0 0 25 25" fill="none" xmlns="http://www.w3.org/2000/svg">
<path fill-rule="evenodd" clip-rule="evenodd" d="M12.1304 9.43466C13.9777 9.43466 15.5 7.91224 15.5 6.0651C15.5 4.21795 13.9777 2.69553 12.1304 2.69553C10.2831 2.69553 8.76087 4.21795 8.76087 6.0651C8.76087 7.91224 10.2831 9.43466 12.1304 9.43466ZM2.69565 21.2281V21.2281V21.5651H21.5652V21.2281V21.2281C21.5657 21.2119 21.572 20.9981 21.1061 20.5697C20.6134 20.1167 19.8017 19.6326 18.6997 19.191C16.4907 18.3057 13.7987 17.8586 12.1304 17.8586C10.4622 17.8586 7.77014 18.3057 5.5612 19.191C4.45918 19.6326 3.64749 20.1167 3.15481 20.5697C2.6889 20.9981 2.69518 21.2119 2.69565 21.2281ZM24.2609 21.2281C24.2609 17.2101 16.1485 15.1629 12.1304 15.1629C8.11236 15.1629 0 17.2101 0 21.2281V24.2607H24.2609V21.2281ZM18.1957 6.0651C18.1957 9.4009 15.4666 12.1303 12.1304 12.1303C8.79425 12.1303 6.06522 9.4009 6.06522 6.0651C6.06522 2.72929 8.79425 -0.00012207 12.1304 -0.00012207C15.4666 -0.00012207 18.1957 2.72929 18.1957 6.0651Z" fill="#C64906"/>
</svg>
